<svg xmlns="http://www.w3.org/2000/svg" viewBox="0 0 128.91 54.43"><defs><style>.cls-1{fill:#fff}</style></defs><title>smd-white</title><g id="Layer_2" data-name="Layer 2"><g id="white"><path class="cls-1" d="M106.06 54.1a2.25 2.25 0 0 1-.76-1.37 6.09 6.09 0 0 1-.06-1.1l.06-1.86a1.59 1.59 0 0 1 1.7-1.46q6.11-.17 9.51-2.7a13.1 13.1 0 0 0 4.56-5.41 16.08 16.08 0 0 0 1.28-5q.06-.7.06-1.92 0-8.55-4.88-11.78a20.2 20.2 0 0 0-11.4-3.23 30.36 30.36 0 0 0-3.4.17 16.44 16.44 0 0 0-2.18.35v34a2 2 0 0 1-.23.79 1 1 0 0 1-.93.55q-.7.06-1.86.06h-1.68q-1.4 0-1.4-1.74V15a1.12 1.12 0 0 1 .23-.67 1.17 1.17 0 0 1 .58-.44q.41-.12 1.86-.41t3.84-.55a45.85 45.85 0 0 1 5-.26 28.16 28.16 0 0 1 16.17 4.56q6.74 4.57 6.75 16.37 0 1.34-.06 2a24.29 24.29 0 0 1-1.1 6.08q-1.11 3.93-6 8.08t-14.68 4.62a1.49 1.49 0 0 1-.98-.28zm-38.28-6.18a.67.67 0 0 1 0 .85 1.41 1.41 0 0 1-.58.66 1.23 1.23 0 0 1-.89.19h-6.37a1.63 1.63 0 0 1-.85-.23 1.25 1.25 0 0 1-.54-.62l-13.1-27.45v31.32a1.56 1.56 0 0 1-.5 1.12 1.64 1.64 0 0 1-1.2.5h-5.36a1.59 1.59 0 0 1-1.63-1.63v-51A1.62 1.62 0 0 1 37.23.5a1.52 1.52 0 0 1 1.16-.5h5.43a1.84 1.84 0 0 1 .89.23 1.23 1.23 0 0 1 .58.62L63.2 38.3v-.08zM89.06.5a1.56 1.56 0 0 1 .5 1.12v51a1.52 1.52 0 0 1-.5 1.16 3.16 3.16 0 0 1-1.63.56s-1.06.06-2.29.06-2.42-.08-2.42-.08a2 2 0 0 1-1.33-.58 1.55 1.55 0 0 1-.5-1.12V21.48l-9.07 19a.88.88 0 0 1-1.55 0l-3.66-7.68a4.22 4.22 0 0 1-.16-.85 2.53 2.53 0 0 1 .16-.78L81 1.09V.93l.08-.08A1.29 1.29 0 0 1 82.2.08a.87.87 0 0 1 .38-.08h5.35a1.56 1.56 0 0 1 1.13.5z"/><circle class="cls-1" cx="63.16" cy="7.75" r="7.75"/><path class="cls-1" d="M9.85 46.88h-.06l-1.32-.62-.47-.33a6.39 6.39 0 0 1-2.33-2.21 2.9 2.9 0 0 0-.87-.7 1.87 1.87 0 0 0-1.16.29 13.91 13.91 0 0 0-1.51 1q-.87.64-1.22.87a1.76 1.76 0 0 0-.64.61 1.58 1.58 0 0 0-.23.84 1.54 1.54 0 0 0 .35.93 9.45 9.45 0 0 0 2.68 2.84 14.58 14.58 0 0 0 1.41.88c.25.16.52.31.78.45l1.82.86a1.28 1.28 0 0 0 1.47-.27 1.26 1.26 0 0 0 .24-.32l1.62-3.43v-.11a1.28 1.28 0 0 0-.56-1.58z"/><path class="cls-1" d="M27.5 33.61A16.07 16.07 0 0 0 24.13 32a45.71 45.71 0 0 0-4.71-1.31q-4.94-1.28-7.62-2.27A6.21 6.21 0 0 1 9 26.4a4.81 4.81 0 0 1-.76-4.13 4.82 4.82 0 0 1 2.21-3A9.48 9.48 0 0 1 15 18.14a12.39 12.39 0 0 1 5.47 1.1 8 8 0 0 1 3.53 3.2 10.78 10.78 0 0 1 .52 1.16 1.62 1.62 0 0 0 .76.87 2 2 0 0 0 1.34-.17l3-1.51a1.44 1.44 0 0 0 .58-.55 1.48 1.48 0 0 0 .23-.79 1.09 1.09 0 0 0-.12-.58 10.41 10.41 0 0 0-.58-1.28 13.58 13.58 0 0 0-4.54-5A17.64 17.64 0 0 0 16.86 12q-1.28-.12-1.92-.12a13.79 13.79 0 0 0-8.54 2.57 11.82 11.82 0 0 0-4.48 6.31 9.79 9.79 0 0 0-.41 3 10.7 10.7 0 0 0 1.95 6.16A12.46 12.46 0 0 0 9.3 34.3a59 59 0 0 0 8.37 2.5 30 30 0 0 1 4.86 1.48 5.24 5.24 0 0 1 2.24 1.57 3.77 3.77 0 0 1 .58 2.15 6 6 0 0 1-.58 2.79 5.05 5.05 0 0 1-1.92 1.92 11.39 11.39 0 0 1-6.11 1.45H15.2a1 1 0 0 0-.73.66l-.88 2.62L13 53a1 1 0 0 0 .64 1.28h.09c.45.05.9.09 1.35.12h.7a24.6 24.6 0 0 0 4.12-.25 16.75 16.75 0 0 0 1.87-.39A17.14 17.14 0 0 0 26.11 52a12.63 12.63 0 0 0 4.25-4.36A11.22 11.22 0 0 0 31.81 42q0-5.78-4.31-8.39z"/></g></g></svg>