<svg xmlns="http://www.w3.org/2000/svg" viewBox="0 0 130 83.62"><defs><style>.cls-1{fill:#fff}.cls-2{fill:none;stroke:#fff;stroke-miterlimit:10}</style></defs><title>logo-smd-white</title><g id="Layer_2" data-name="Layer 2"><g id="white"><path class="cls-1" d="M6.91 75.6l-.42.94a4.52 4.52 0 0 0-2.41-.74c-1.12 0-1.86.42-1.86 1.16 0 2.25 4.92 1.08 4.91 4.25 0 1.46-1.29 2.4-3.16 2.4a5 5 0 0 1-3.36-1.33l.45-.9A4.35 4.35 0 0 0 4 82.61c1.26 0 2-.51 2-1.35 0-2.3-4.91-1.08-4.91-4.21 0-1.37 1.21-2.26 3-2.26a5.17 5.17 0 0 1 2.82.81zm2.92 5.76l-1 2.21H7.79l3.92-8.75h1l3.91 8.75h-1.04l-1-2.21zM12.21 76l-1.95 4.4h3.92zm13.96 3.2a4.58 4.58 0 0 1-9.16 0 4.45 4.45 0 0 1 4.59-4.4 4.45 4.45 0 0 1 4.57 4.4zm-8.17 0a3.56 3.56 0 1 0 3.57-3.45A3.53 3.53 0 0 0 18 79.2zm21.34 4.37v-7.21l-3.19 6.29h-.6l-3.17-6.29v7.21h-.95v-8.74h1.24l3.2 6.3 3.13-6.3h1.22v8.75zm11.93-4.37a4.58 4.58 0 1 1-4.57-4.4 4.47 4.47 0 0 1 4.57 4.4zm-8.15 0a3.56 3.56 0 1 0 3.57-3.45 3.53 3.53 0 0 0-3.57 3.45zm17.12.8a3.37 3.37 0 0 1-3.66 3.65A3.38 3.38 0 0 1 52.89 80v-5.17h1V80a2.67 2.67 0 1 0 5.35 0v-5.17h1zm2.97 1.36l-1 2.21h-1.04l3.92-8.75h1L70 83.57h-1l-1-2.21zM65.58 76l-2 4.44h3.92zm12.8-1.17a4.38 4.38 0 1 1 0 8.75h-3.5v-8.75zm-2.54 7.8h2.55a3.42 3.42 0 1 0 0-6.83h-2.55zm9.87-6.84v2.87h4.41v1h-4.41v3h5.1v1h-6.1v-8.83h5.94v1zm12.51-.19l-.42.94a4.52 4.52 0 0 0-2.41-.74c-1.12 0-1.86.42-1.86 1.16 0 2.25 4.92 1.08 4.91 4.25 0 1.46-1.29 2.4-3.16 2.4a5 5 0 0 1-3.35-1.34l.45-.9a4.35 4.35 0 0 0 2.91 1.24c1.26 0 2-.51 2-1.35 0-2.3-4.91-1.08-4.91-4.21 0-1.37 1.21-2.26 3-2.26a5.17 5.17 0 0 1 2.84.81zm2.26 7.97v-8.74h1v8.75zm10.64-4.27v3.17a5.4 5.4 0 0 1-3.25 1.15 4.41 4.41 0 1 1 0-8.82 5 5 0 0 1 3.22 1.2l-.58.75a4 4 0 0 0-2.65-1 3.47 3.47 0 1 0 0 6.94 4.19 4.19 0 0 0 2.3-.74V79.3zm8.67 4.27l-5.25-7v7h-1v-8.74h1l5.25 7v-7h1v8.75zm9.06-7.97l-.42.94a4.52 4.52 0 0 0-2.43-.74c-1.12 0-1.86.42-1.86 1.16 0 2.25 4.92 1.08 4.91 4.25 0 1.46-1.29 2.4-3.16 2.4a5 5 0 0 1-3.35-1.34l.45-.9a4.35 4.35 0 0 0 2.91 1.24c1.26 0 2-.51 2-1.35 0-2.3-4.91-1.08-4.91-4.21 0-1.37 1.21-2.26 3-2.26a5.17 5.17 0 0 1 2.86.81z"/><path class="cls-2" d="M0 64.61h130"/><path class="cls-1" d="M106.59 54.1a2.25 2.25 0 0 1-.76-1.37 6.09 6.09 0 0 1-.06-1.1l.06-1.86a1.59 1.59 0 0 1 1.74-1.45q6.11-.17 9.51-2.7a13.1 13.1 0 0 0 4.56-5.41 16.08 16.08 0 0 0 1.28-5q.06-.7.06-1.92 0-8.55-4.88-11.78a20.2 20.2 0 0 0-11.4-3.23 30.36 30.36 0 0 0-3.4.17 16.44 16.44 0 0 0-2.18.35v34a2 2 0 0 1-.23.79 1 1 0 0 1-.93.55q-.7.06-1.86.06h-1.68q-1.4 0-1.4-1.74V15a1.12 1.12 0 0 1 .23-.67 1.17 1.17 0 0 1 .58-.44q.41-.12 1.86-.41t3.84-.55a45.85 45.85 0 0 1 5-.26 28.16 28.16 0 0 1 16.17 4.56q6.74 4.57 6.75 16.37 0 1.34-.06 2a24.29 24.29 0 0 1-1.1 6.08q-1.11 3.93-6 8.08t-14.68 4.62a1.49 1.49 0 0 1-1.02-.28zm-38.28-6.18a.67.67 0 0 1 0 .85 1.41 1.41 0 0 1-.58.66 1.23 1.23 0 0 1-.89.19h-6.36a1.63 1.63 0 0 1-.85-.23 1.25 1.25 0 0 1-.54-.62L46 21.32v31.32a1.56 1.56 0 0 1-.5 1.12 1.64 1.64 0 0 1-1.2.5h-5.38a1.59 1.59 0 0 1-1.63-1.63v-51A1.62 1.62 0 0 1 37.76.5a1.52 1.52 0 0 1 1.16-.5h5.43a1.84 1.84 0 0 1 .89.23 1.23 1.23 0 0 1 .58.62L63.73 38.3v-.08zM89.59.5a1.56 1.56 0 0 1 .5 1.12v51a1.52 1.52 0 0 1-.5 1.16 3.16 3.16 0 0 1-1.63.56s-1.06.06-2.29.06-2.42-.08-2.42-.08a2 2 0 0 1-1.33-.58 1.55 1.55 0 0 1-.5-1.12V21.48l-9.07 19a.88.88 0 0 1-1.55 0l-3.66-7.68a4.22 4.22 0 0 1-.16-.85 2.53 2.53 0 0 1 .16-.78L81.56 1.09V.93l.08-.08a1.29 1.29 0 0 1 1.09-.77.87.87 0 0 1 .38-.08h5.35a1.56 1.56 0 0 1 1.13.5z"/><circle class="cls-1" cx="63.69" cy="7.75" r="7.75"/><path class="cls-1" d="M10.38 46.88h-.06L9 46.22l-.51-.29a6.39 6.39 0 0 1-2.33-2.21A2.9 2.9 0 0 0 5.3 43a1.87 1.87 0 0 0-1.16.29 13.91 13.91 0 0 0-1.51 1q-.87.64-1.22.87a1.76 1.76 0 0 0-.64.61 1.58 1.58 0 0 0-.23.84 1.54 1.54 0 0 0 .35.93A9.45 9.45 0 0 0 3.6 50.4a14.58 14.58 0 0 0 1.4.88c.25.16.52.31.78.45l1.82.86a1.28 1.28 0 0 0 1.47-.27 1.26 1.26 0 0 0 .25-.32l1.62-3.43v-.11a1.28 1.28 0 0 0-.56-1.58z"/><path class="cls-1" d="M28 33.61A16.07 16.07 0 0 0 24.66 32 45.71 45.71 0 0 0 20 30.7q-5-1.28-7.67-2.27a6.21 6.21 0 0 1-2.85-2 4.81 4.81 0 0 1-.76-4.13 4.82 4.82 0 0 1 2.21-3 9.48 9.48 0 0 1 4.59-1.1A12.39 12.39 0 0 1 21 19.24a8 8 0 0 1 3.49 3.2A10.78 10.78 0 0 1 25 23.6a1.62 1.62 0 0 0 .76.87 2 2 0 0 0 1.34-.17l3-1.51a1.44 1.44 0 0 0 .58-.55 1.48 1.48 0 0 0 .23-.79 1.09 1.09 0 0 0-.12-.58 10.41 10.41 0 0 0-.58-1.28 13.58 13.58 0 0 0-4.54-5A17.64 17.64 0 0 0 17.39 12q-1.28-.12-1.92-.12a13.79 13.79 0 0 0-8.55 2.59 11.82 11.82 0 0 0-4.48 6.31 9.79 9.79 0 0 0-.41 3A10.7 10.7 0 0 0 4 29.88a12.46 12.46 0 0 0 5.83 4.42 59 59 0 0 0 8.37 2.5 30 30 0 0 1 4.86 1.48 5.24 5.24 0 0 1 2.24 1.57 3.77 3.77 0 0 1 .58 2.15 6 6 0 0 1-.58 2.79 5.05 5.05 0 0 1-1.92 1.92 11.39 11.39 0 0 1-6.11 1.45h-1.54a1 1 0 0 0-.73.66l-.88 2.62-.55 1.56a1 1 0 0 0 .64 1.28h.09c.45.05.9.09 1.35.12h.7a24.6 24.6 0 0 0 4.12-.25 16.75 16.75 0 0 0 1.87-.39 17.14 17.14 0 0 0 4.3-1.76 12.63 12.63 0 0 0 4.25-4.36A11.22 11.22 0 0 0 32.34 42q0-5.78-4.34-8.39z"/></g></g></svg>